{
  "accessors": [
    {
      "bufferView": 2,
      "componentType": 5126,
      "count": 6298,
      "max": [
        1.0577049255371094,
        0.6692094802856445,
        4.028403282165527
      ],
      "min": [
        -0.9909677505493164,
        -0.45026975870132446,
        -0.03571080416440964
      ],
      "type": "VEC3"
    },
    {
      "bufferView": 2,
      "byteOffset": 75576,
      "componentType": 5126,
      "count": 6298,
      "max": [
        0.9998442530632019,
        0.9999037981033325,
        0.9992972612380981
      ],
      "min": [
        -0.9999262690544128,
        -0.999625027179718,
        -0.9998788237571716
      ],
      "type": "VEC3"
    },
    {
      "bufferView": 3,
      "componentType": 5126,
      "count": 6298,
      "max": [
        1.0,
        1.0,
        1.0,
        1.0
      ],
      "min": [
        1.0,
        1.0,
        1.0,
        1.0
      ],
      "type": "VEC4"
    },
    {
      "bufferView": 1,
      "componentType": 5126,
      "count": 6298,
      "max": [
        0.9568750858306885,
        0.9966474771499634
      ],
      "min": [
        0.003593564499169588,
        0.003731200937181711
      ],
      "type": "VEC2"
    },
    {
      "bufferView": 0,
      "componentType": 5125,
      "count": 32214,
      "type": "SCALAR"
    },
    {
      "bufferView": 2,
      "byteOffset": 151152,
      "componentType": 5126,
      "count": 3314,
      "max": [
        0.07594288140535355,
        0.42496949434280396,
        4.538046836853027
      ],
      "min": [
        -0.4572414457798004,
        -0.17921732366085052,
        3.8981757164001465
      ],
      "type": "VEC3"
    },
    {
      "bufferView": 2,
      "byteOffset": 190920,
      "componentType": 5126,
      "count": 3314,
      "max": [
        0.9993504285812378,
        0.9990271925926208,
        0.9994744658470154
      ],
      "min": [
        -0.9986375570297241,
        -0.9985702037811279,
        -0.9994510412216187
      ],
      "type": "VEC3"
    },
    {
      "bufferView": 3,
      "byteOffset": 100768,
      "componentType": 5126,
      "count": 3314,
      "max": [
        1.0,
        1.0,
        1.0,
        1.0
      ],
      "min": [
        0.9960784316062927,
        0.9960784316062927,
        0.9960784316062927,
        0.9960784316062927
      ],
      "type": "VEC4"
    },
    {
      "bufferView": 1,
      "byteOffset": 50384,
      "componentType": 5126,
      "count": 3314,
      "max": [
        1.9980727434158325,
        0.992522120475769
      ],
      "min": [
        1.001927375793457,
        0.0019273355137556791
      ],
      "type": "VEC2"
    },
    {
      "bufferView": 0,
      "byteOffset": 128856,
      "componentType": 5125,
      "count": 12432,
      "type": "SCALAR"
    },
    {
      "bufferView": 2,
      "byteOffset": 230688,
      "componentType": 5126,
      "count": 14180,
      "max": [
        1.643725872039795,
        1.4136359691619873,
        4.54300594329834
      ],
      "min": [
        -2.0245633125305176,
        -0.46723589301109314,
        -0.05112419277429581
      ],
      "type": "VEC3"
    },
    {
      "bufferView": 2,
      "byteOffset": 400848,
      "componentType": 5126,
      "count": 14180,
      "max": [
        0.9999462962150574,
        0.9999723434448242,
        1.0
      ],
      "min": [
        -0.9998430609703064,
        -0.9999019503593445,
        -0.999713659286499
      ],
      "type": "VEC3"
    },
    {
      "bufferView": 3,
      "byteOffset": 153792,
      "componentType": 5126,
      "count": 14180,
      "max": [
        1.0,
        1.0,
        1.0,
        1.0
      ],
      "min": [
        1.0,
        1.0,
        1.0,
        1.0
      ],
      "type": "VEC4"
    },
    {
      "bufferView": 1,
      "byteOffset": 76896,
      "componentType": 5126,
      "count": 14180,
      "max": [
        1.9980727434158325,
        0.9966474771499634
      ],
      "min": [
        0.0,
        0.0
      ],
      "type": "VEC2"
    },
    {
      "bufferView": 0,
      "byteOffset": 178584,
      "componentType": 5125,
      "count": 73986,
      "type": "SCALAR"
    },
    {
      "bufferView": 2,
      "byteOffset": 571008,
      "componentType": 5126,
      "count": 4557,
      "max": [
        0.20203547179698944,
        1.04584801197052,
        4.634435653686523
      ],
      "min": [
        -0.5527805685997009,
        -0.20275570452213287,
        2.486694574356079
      ],
      "type": "VEC3"
    },
    {
      "bufferView": 2,
      "byteOffset": 625692,
      "componentType": 5126,
      "count": 4557,
      "max": [
        0.9994606375694275,
        0.9998041391372681,
        0.9953499436378479
      ],
      "min": [
        -0.9999150633811951,
        -0.9993191957473755,
        -0.9986771941184998
      ],
      "type": "VEC3"
    },
    {
      "bufferView": 3,
      "byteOffset": 380672,
      "componentType": 5126,
      "count": 4557,
      "max": [
        1.0,
        1.0,
        1.0,
        1.0
      ],
      "min": [
        0.9960784316062927,
        0.9960784316062927,
        0.9960784316062927,
        0.9960784316062927
      ],
      "type": "VEC4"
    },
    {
      "bufferView": 1,
      "byteOffset": 190336,
      "componentType": 5126,
      "count": 4557,
      "max": [
        1.3265856504440308,
        0.992522120475769
      ],
      "min": [
        0.005001959390938282,
        0.00472988560795784
      ],
      "type": "VEC2"
    },
    {
      "bufferView": 0,
      "byteOffset": 474528,
      "componentType": 5125,
      "count": 22608,
      "type": "SCALAR"
    },
    {
      "bufferView": 2,
      "byteOffset": 680376,
      "componentType": 5126,
      "count": 4796,
      "max": [
        0.19710209965705872,
        1.0421007871627808,
        4.6294684410095215
      ],
      "min": [
        -0.547818660736084,
        -0.19776172935962677,
        2.4913523197174072
      ],
      "type": "VEC3"
    },
    {
      "bufferView": 2,
      "byteOffset": 737928,
      "componentType": 5126,
      "count": 4796,
      "max": [
        0.9999842047691345,
        0.9993187785148621,
        0.9959892630577087
      ],
      "min": [
        -0.9997265338897705,
        -0.9998205900192261,
        -0.9959546327590942
      ],
      "type": "VEC3"
    },
    {
      "bufferView": 3,
      "byteOffset": 453584,
      "componentType": 5126,
      "count": 4796,
      "max": [
        1.0,
        1.0,
        1.0,
        1.0
      ],
      "min": [
        1.0,
        1.0,
        1.0,
        1.0
      ],
      "type": "VEC4"
    },
    {
      "bufferView": 1,
      "byteOffset": 226792,
      "componentType": 5126,
      "count": 4796,
      "max": [
        0.995343804359436,
        0.9864301681518555
      ],
      "min": [
        0.005001959390938282,
        0.00472988560795784
      ],
      "type": "VEC2"
    },
    {
      "bufferView": 0,
      "byteOffset": 564960,
      "componentType": 5125,
      "count": 23508,
      "type": "SCALAR"
    },
    {
      "bufferView": 2,
      "byteOffset": 795480,
      "componentType": 5126,
      "count": 8409,
      "max": [
        1.6397507190704346,
        1.4092730283737183,
        3.904353141784668
      ],
      "min": [
        -2.019972085952759,
        -0.4622938632965088,
        -0.04612567275762558
      ],
      "type": "VEC3"
    },
    {
      "bufferView": 2,
      "byteOffset": 896388,
      "componentType": 5126,
      "count": 8409,
      "max": [
        0.9999858736991882,
        0.9998843669891357,
        0.9996696710586548
      ],
      "min": [
        -0.9999879002571106,
        -0.9998114705085754,
        -1.0
      ],
      "type": "VEC3"
    },
    {
      "bufferView": 3,
      "byteOffset": 530320,
      "componentType": 5126,
      "count": 8409,
      "max": [
        1.0,
        1.0,
        1.0,
        1.0
      ],
      "min": [
        1.0,
        1.0,
        1.0,
        1.0
      ],
      "type": "VEC4"
    },
    {
      "bufferView": 1,
      "byteOffset": 265160,
      "componentType": 5126,
      "count": 8409,
      "max": [
        0.996493399143219,
        0.9934573173522949
      ],
      "min": [
        0.003774828976020217,
        0.0035620220005512238
      ],
      "type": "VEC2"
    },
    {
      "bufferView": 0,
      "byteOffset": 658992,
      "componentType": 5125,
      "count": 41952,
      "type": "SCALAR"
    }
  ],
  "asset": {
    "extras": {
      "author": "LessaB3D (https://sketchfab.com/lessaB3D)",
      "license": "SKETCHFAB Standard (https://sketchfab.com/licenses)",
      "source": "https://sketchfab.com/3d-models/anime-beginner-warrior-rpg-b0d6b42458254741928871f108cd69ee",
      "title": "ANIME - Beginner Warrior (RPG)"
    },
    "generator": "Sketchfab-16.28.0",
    "version": "2.0"
  },
  "bufferViews": [
    {
      "buffer": 0,
      "byteLength": 826800,
      "name": "floatBufferViews",
      "target": 34963
    },
    {
      "buffer": 0,
      "byteLength": 332432,
      "byteOffset": 826800,
      "byteStride": 8,
      "name": "floatBufferViews",
      "target": 34962
    },
    {
      "buffer": 0,
      "byteLength": 997296,
      "byteOffset": 1159232,
      "byteStride": 12,
      "name": "floatBufferViews",
      "target": 34962
    },
    {
      "buffer": 0,
      "byteLength": 664864,
      "byteOffset": 2156528,
      "byteStride": 16,
      "name": "floatBufferViews",
      "target": 34962
    }
  ],
  "buffers": [
    {
      "byteLength": 2821392,
      "uri": "scene.bin"
    }
  ],
  "extensionsUsed": [
    "KHR_materials_unlit"
  ],
  "images": [
    {
      "uri": "textures/Skin_baseColor.png"
    },
    {
      "uri": "textures/Head_baseColor.png"
    },
    {
      "uri": "textures/Hair_baseColor.png"
    },
    {
      "uri": "textures/Clothes_baseColor.png"
    }
  ],
  "materials": [
    {
      "doubleSided": true,
      "extensions": {
        "KHR_materials_unlit": {}
      },
      "name": "Skin",
      "pbrMetallicRoughness": {
        "baseColorTexture": {
          "index": 0
        },
        "metallicFactor": 0.0
      }
    },
    {
      "doubleSided": true,
      "extensions": {
        "KHR_materials_unlit": {}
      },
      "name": "Head",
      "pbrMetallicRoughness": {
        "baseColorTexture": {
          "index": 1
        },
        "metallicFactor": 0.0
      }
    },
    {
      "extensions": {
        "KHR_materials_unlit": {}
      },
      "name": "Outline-black",
      "pbrMetallicRoughness": {
        "baseColorFactor": [
          0.017642,
          0.017642,
          0.017642,
          1.0
        ],
        "metallicFactor": 0.0
      }
    },
    {
      "extensions": {
        "KHR_materials_unlit": {}
      },
      "name": "Hair_Outline",
      "pbrMetallicRoughness": {
        "baseColorFactor": [
          0.0168074,
          0.0144438,
          0.021219,
          1.0
        ],
        "metallicFactor": 0.0
      }
    },
    {
      "doubleSided": true,
      "extensions": {
        "KHR_materials_unlit": {}
      },
      "name": "Hair",
      "pbrMetallicRoughness": {
        "baseColorTexture": {
          "index": 2
        },
        "metallicFactor": 0.0
      }
    },
    {
      "doubleSided": true,
      "extensions": {
        "KHR_materials_unlit": {}
      },
      "name": "Clothes",
      "pbrMetallicRoughness": {
        "baseColorTexture": {
          "index": 3
        },
        "metallicFactor": 0.0
      }
    }
  ],
  "meshes": [
    {
      "name": "Character_Skin_0",
      "primitives": [
        {
          "attributes": {
            "COLOR_0": 2,
            "NORMAL": 1,
            "POSITION": 0,
            "TEXCOORD_0": 3
          },
          "indices": 4,
          "material": 0,
          "mode": 4
        }
      ]
    },
    {
      "name": "Character_Head_0",
      "primitives": [
        {
          "attributes": {
            "COLOR_0": 7,
            "NORMAL": 6,
            "POSITION": 5,
            "TEXCOORD_0": 8
          },
          "indices": 9,
          "material": 1,
          "mode": 4
        }
      ]
    },
    {
      "name": "Character_Outline-black_0",
      "primitives": [
        {
          "attributes": {
            "COLOR_0": 12,
            "NORMAL": 11,
            "POSITION": 10,
            "TEXCOORD_0": 13
          },
          "indices": 14,
          "material": 2,
          "mode": 4
        }
      ]
    },
    {
      "name": "Character_Hair Outline_0",
      "primitives": [
        {
          "attributes": {
            "COLOR_0": 17,
            "NORMAL": 16,
            "POSITION": 15,
            "TEXCOORD_0": 18
          },
          "indices": 19,
          "material": 3,
          "mode": 4
        }
      ]
    },
    {
      "name": "Character_Hair_0",
      "primitives": [
        {
          "attributes": {
            "COLOR_0": 22,
            "NORMAL": 21,
            "POSITION": 20,
            "TEXCOORD_0": 23
          },
          "indices": 24,
          "material": 4,
          "mode": 4
        }
      ]
    },
    {
      "name": "Character_Clothes_0",
      "primitives": [
        {
          "attributes": {
            "COLOR_0": 27,
            "NORMAL": 26,
            "POSITION": 25,
            "TEXCOORD_0": 28
          },
          "indices": 29,
          "material": 5,
          "mode": 4
        }
      ]
    }
  ],
  "nodes": [
    {
      "children": [
        1
      ],
      "matrix": [
        1.0,
        0.0,
        0.0,
        0.0,
        0.0,
        2.220446049250313e-16,
        -1.0,
        0.0,
        0.0,
        1.0,
        2.220446049250313e-16,
        0.0,
        0.0,
        0.0,
        0.0,
        1.0
      ],
      "name": "Sketchfab_model"
    },
    {
      "children": [
        2
      ],
      "matrix": [
        0.009999999776482582,
        0.0,
        0.0,
        0.0,
        0.0,
        0.0,
        0.009999999776482582,
        0.0,
        0.0,
        -0.009999999776482582,
        0.0,
        0.0,
        0.0,
        0.0,
        0.0,
        1.0
      ],
      "name": "68aec0c6e94c44dfa0e776e49d489253.fbx"
    },
    {
      "children": [
        3
      ],
      "name": "Object_2"
    },
    {
      "children": [
        4
      ],
      "name": "RootNode"
    },
    {
      "children": [
        5,
        6,
        7,
        8,
        9,
        10
      ],
      "name": "Character",
      "rotation": [
        -0.7071068286895752,
        0.0,
        0.0,
        0.7071067094802856
      ],
      "scale": [
        100.0,
        100.0,
        100.0
      ]
    },
    {
      "mesh": 0,
      "name": "Character_Skin_0"
    },
    {
      "mesh": 1,
      "name": "Character_Head_0"
    },
    {
      "mesh": 2,
      "name": "Character_Outline-black_0"
    },
    {
      "mesh": 3,
      "name": "Character_Hair Outline_0"
    },
    {
      "mesh": 4,
      "name": "Character_Hair_0"
    },
    {
      "mesh": 5,
      "name": "Character_Clothes_0"
    }
  ],
  "samplers": [
    {
      "magFilter": 9729,
      "minFilter": 9987,
      "wrapS": 10497,
      "wrapT": 10497
    }
  ],
  "scene": 0,
  "scenes": [
    {
      "name": "Sketchfab_Scene",
      "nodes": [
        0
      ]
    }
  ],
  "textures": [
    {
      "sampler": 0,
      "source": 0
    },
    {
      "sampler": 0,
      "source": 1
    },
    {
      "sampler": 0,
      "source": 2
    },
    {
      "sampler": 0,
      "source": 3
    }
  ]
}
